<svg width="197" height="115" viewBox="0 0 197 115" fill="none" xmlns="http://www.w3.org/2000/svg">
<path d="M39.3633 19.4844H31.6094V43H25.5547V19.4844H17.8008V14.4453H39.3633V19.4844ZM43.7578 14.4453H52.0781C55.9453 14.4453 58.8099 15.1484 60.6719 16.5547C62.5469 17.9609 63.4844 20.1094 63.4844 23C63.4844 24.6797 63.0221 26.1771 62.0977 27.4922C61.1732 28.7943 59.8646 29.8164 58.1719 30.5586C62.7552 37.4076 65.5547 41.5547 66.5703 43H59.8516L53.0352 32.043H49.8125V43H43.7578V14.4453ZM49.8125 19.4062V27.1211H51.7656C53.6797 27.1211 55.0924 26.8021 56.0039 26.1641C56.9154 25.526 57.3711 24.5299 57.3711 23.1758C57.3711 21.8216 56.9089 20.8581 55.9844 20.2852C55.0729 19.6992 53.6276 19.4062 51.6484 19.4062H49.8125ZM76.2188 43H70.1641V14.4453H76.2188V43ZM83.4062 14.4453H92.293C96.3164 14.4453 99.2461 15.0247 101.082 16.1836C102.931 17.3424 103.855 19.1719 103.855 21.6719C103.855 23.3646 103.452 24.7643 102.645 25.8711C101.837 26.9779 100.776 27.6354 99.4609 27.8438V28.0391C101.245 28.4297 102.54 29.1784 103.348 30.2852C104.168 31.3789 104.578 32.8568 104.578 34.7188C104.578 37.3229 103.641 39.3542 101.766 40.8125C99.8906 42.2708 97.332 43 94.0898 43H83.4062V14.4453ZM89.4609 19.4062V25.7539H92.9766C94.6302 25.7539 95.8216 25.5 96.5508 24.9922C97.2799 24.4844 97.6445 23.6706 97.6445 22.5508C97.6445 21.418 97.2474 20.6107 96.4531 20.1289C95.6589 19.6471 94.3893 19.4062 92.6445 19.4062H89.4609ZM89.4609 30.5586V38H93.4062C95.0729 38 96.3034 37.681 97.0977 37.043C97.8919 36.4049 98.2891 35.4284 98.2891 34.1133C98.2891 31.7435 96.5964 30.5586 93.2109 30.5586H89.4609ZM126.727 19.4062H116.336V25.6758H125.984V30.6367H116.336V38H126.727V43H110.281V14.4453H126.727V19.4062Z" fill="white"/>
<path d="M9.50439 17.0059H6.20898V27H3.63574V17.0059H0.340332V14.8643H9.50439V17.0059ZM8.5166 39.9727H4.10059V42.6372H8.20117V44.7456H4.10059V47.875H8.5166V50H1.52734V37.8643H8.5166V39.9727ZM6.43311 73.166C4.66781 73.166 3.31755 72.632 2.38232 71.564C1.4471 70.4959 0.979492 68.9575 0.979492 66.9487C0.979492 66.9211 0.979492 66.8934 0.979492 66.8657C0.979492 65.6483 1.20915 64.5692 1.66846 63.6284C2.12777 62.6821 2.78353 61.9572 3.63574 61.4536C4.48796 60.9445 5.46468 60.6899 6.56592 60.6899C6.60465 60.6899 6.64062 60.6899 6.67383 60.6899C7.86361 60.6899 9.04785 60.9749 10.2266 61.5449L9.39648 63.6367C8.27311 63.0999 7.36556 62.8315 6.67383 62.8315C5.7054 62.8315 4.95557 63.1968 4.42432 63.9272C3.89307 64.6522 3.62744 65.6649 3.62744 66.9653C3.62744 69.6714 4.6429 71.0244 6.67383 71.0244C7.52051 71.0244 8.55257 70.8114 9.77002 70.3853V72.5435C8.77393 72.9585 7.66162 73.166 6.43311 73.166ZM11.4717 96H8.90674V90.7622H4.10059V96H1.52734V83.8643H4.10059V88.6206H8.90674V83.8643H11.4717V96Z" fill="white"/>
<path d="M19.75 50.3125H34.3438C39.9062 50.3125 44.125 51.5104 47 53.9062C49.875 56.3021 51.3125 59.9167 51.3125 64.75C51.3125 69.5625 49.7708 73.2708 46.6875 75.875C43.6042 78.4583 39.2396 79.75 33.5938 79.75H29.4375V96H19.75V50.3125ZM29.4375 58.25V71.8125H32.625C38.5625 71.8125 41.5312 69.5208 41.5312 64.9375C41.5312 62.6458 40.9062 60.9583 39.6562 59.875C38.4271 58.7917 36.4896 58.25 33.8438 58.25H29.4375ZM107.304 96H96.8662L93.5225 85.125H76.8975L73.585 96H63.1475L79.2725 50.125H91.1162L107.304 96ZM91.2412 77L86.0537 60.2812C85.6579 58.9062 85.3871 57.8854 85.2412 57.2188C84.5537 59.8646 82.585 66.4583 79.335 77H91.2412ZM131.732 88H150.264V96H122.045V50.3125H131.732V88ZM164.349 84.875C167.515 86.2708 170.151 87.25 172.255 87.8125C174.38 88.3542 176.411 88.625 178.349 88.625C180.307 88.625 181.849 88.2188 182.974 87.4062C184.099 86.5938 184.661 85.3854 184.661 83.7812C184.661 82.8854 184.422 82.1042 183.943 81.4375C183.463 80.75 182.724 80.0729 181.724 79.4062C180.745 78.7188 178.807 77.6979 175.911 76.3438C173.015 74.9688 170.88 73.6875 169.505 72.5C166.443 69.8542 164.911 66.5417 164.911 62.5625C164.911 58.5833 166.276 55.4375 169.005 53.125C171.755 50.8125 175.547 49.6562 180.38 49.6562C184.443 49.6562 188.963 50.7292 193.943 52.875L190.818 60.4062C188.463 59.4479 186.474 58.7604 184.849 58.3438C183.224 57.9271 181.568 57.7188 179.88 57.7188C178.213 57.7188 176.88 58.1458 175.88 59C174.88 59.8333 174.38 60.9479 174.38 62.3438C174.38 63.1979 174.568 63.9479 174.943 64.5938C175.338 65.2188 175.963 65.8333 176.818 66.4375C177.693 67.0208 179.755 68.0833 183.005 69.625C187.255 71.6458 190.172 73.6979 191.755 75.7812C193.359 77.7812 194.161 80.2917 194.161 83.3125C194.161 87.3958 192.672 90.6562 189.693 93.0938C186.713 95.4479 182.682 96.625 177.599 96.625C172.515 96.625 168.099 95.7083 164.349 93.875V84.875Z" fill="white"/>
</svg>
